<svg xmlns="http://www.w3.org/2000/svg" width="36" height="36" fill="none" viewBox="-7 -9 66 66"><g clip-path="url(#a)"><mask id="b" width="48" height="48" x="0" y="0" maskUnits="userSpaceOnUse" style="mask-type:alpha"><path fill="#d9d9d9" d="M24 0c13.255 0 24 10.745 24 24 0 2.768-.47 5.426-1.333 7.9-1.356-.58-2.85-.9-4.417-.9C36.037 31 31 36.037 31 42.25c0 1.568.32 3.06.9 4.417A24 24 0 0 1 24 48C10.745 48 0 37.255 0 24S10.745 0 24 0"/></mask><g mask="url(#b)"><circle cx="24" cy="24" r="24" fill="#f7911a"/><path fill="#fff" d="m29.272 13.955 1.2-4.5-2.7-.75-1.05 4.35-2.25-.45 1.05-4.5-2.85-.6-1.05 4.5-1.8-.45-3.75-.9-.75 3s2.1.45 1.95.45c1.05.3 1.35 1.05 1.35 1.65l-3.15 12.3c-.15.3-.45.9-1.35.6l-1.95-.45-1.35 3.15 3.6.9 1.95.45-1.2 4.499 2.7.75 1.2-4.5c.75.15 1.5.45 2.25.6l-1.05 4.5 2.7.75 1.2-4.5c4.65.9 8.25.6 9.75-3.75 1.2-3.45 0-5.4-2.55-6.6 1.8-.45 3.15-1.65 3.45-4.05.45-3.45-1.95-5.25-5.55-6.45m-.75 15.15c-.9 3.45-6.6 1.5-8.4 1.05l1.5-6c1.8.45 7.8 1.35 6.9 4.95m.9-8.85c-.75 3.15-5.55 1.5-7.05 1.2l1.35-5.55c1.5.3 6.45 1.05 5.7 4.35"/></g><g clip-path="url(#c)"><circle cx="42.25" cy="42.25" r="9.75" fill="#f17d00"/><path fill="#fff" d="M42.25 40.598c-.371 0-.703-.191-.889-.512l-2.509-4.336h6.795l-2.509 4.336c-.185.32-.517.512-.888.512m2.322 1.338c-.371 0-.703-.191-.889-.512a1.01 1.01 0 0 1 0-1.024l2.509-4.336 3.397 5.872zm-5.72 6.814 2.509-4.336c.186-.32.518-.512.889-.512.37 0 .703.191.888.512l2.51 4.336zm4.831-4.65a1.01 1.01 0 0 1 0-1.024c.186-.32.518-.512.889-.512h5.017l-3.397 5.872zm-8.773-2.164 3.398-5.872 2.508 4.336c.186.32.186.703 0 1.024-.185.32-.518.512-.889.512zm0 .628h5.018c.37 0 .703.191.888.512.186.32.186.703 0 1.024l-2.508 4.336z"/></g></g><defs><clipPath id="a"><path fill="#fff" d="M0 0h52v52H0z"/></clipPath><clipPath id="c"><path fill="#fff" d="M32.5 32.5H52V52H32.5z"/></clipPath></defs></svg>