<svg width="36" height="36" viewBox="-7 -9 66 66" fill="none" xmlns="http://www.w3.org/2000/svg">
<g clip-path="url(#clip0_7370_8187)">
<mask id="mask0_7370_8187" style="mask-type:alpha" maskUnits="userSpaceOnUse" x="0" y="0" width="48" height="48">
<path d="M24 0C37.2548 0 48 10.7452 48 24C48 26.7682 47.5293 29.4262 46.667 31.9004C45.3109 31.3209 43.8179 31 42.25 31C36.0368 31 31 36.0368 31 42.25C31 43.8179 31.3209 45.3109 31.9004 46.667C29.4262 47.5293 26.7682 48 24 48C10.7452 48 0 37.2548 0 24C0 10.7452 10.7452 0 24 0Z" fill="#D9D9D9"/>
</mask>
<g mask="url(#mask0_7370_8187)">
<circle cx="24" cy="24" r="24" fill="#F7911A"/>
<path d="M29.2717 13.9547L30.4716 9.45482L27.7717 8.70484L26.7217 13.0547C25.9718 12.9047 25.2218 12.7547 24.4718 12.6047L25.5218 8.10486L22.6719 7.50488L21.6219 12.0047C21.0219 11.8547 20.422 11.7047 19.822 11.5548L16.0721 10.6548L15.3221 13.6547C15.3221 13.6547 17.422 14.1047 17.2721 14.1047C18.322 14.4047 18.622 15.1546 18.622 15.7546L15.4721 28.0542C15.3221 28.3542 15.0221 28.9542 14.1222 28.6542L12.1722 28.2042L10.8223 31.3541L14.4221 32.2541L16.3721 32.7041L15.1721 37.2039L17.872 37.9539L19.072 33.454C19.822 33.604 20.5719 33.904 21.3219 34.054L20.272 38.5539L22.9719 39.3038L24.1718 34.804C28.8217 35.704 32.4216 35.404 33.9215 31.0541C35.1215 27.6042 33.9215 25.6543 31.3716 24.4543C33.1715 24.0043 34.5215 22.8044 34.8215 20.4045C35.2715 16.9546 32.8715 15.1546 29.2717 13.9547ZM28.5217 29.1042C27.6217 32.5541 21.9219 30.6041 20.122 30.1541L21.6219 24.1543C23.4219 24.6043 29.4217 25.5043 28.5217 29.1042ZM29.4217 20.2545C28.6717 23.4044 23.8718 21.7544 22.3719 21.4544L23.7218 15.9046C25.2218 16.2046 30.1716 16.9546 29.4217 20.2545Z" fill="white"/>
</g>
<g clip-path="url(#clip1_7370_8187)">
<circle cx="42.25" cy="42.25" r="9.75" fill="#F17D00"/>
<path d="M42.2497 40.598C41.8787 40.598 41.5465 40.4066 41.361 40.086L38.8523 35.75H45.6471L43.1384 40.086C42.9529 40.4066 42.6207 40.598 42.2497 40.598Z" fill="white"/>
<path d="M44.5719 41.936C44.2009 41.936 43.8686 41.7446 43.6831 41.424C43.4976 41.1034 43.4976 40.7206 43.6831 40.3999L46.1917 36.064L49.5892 41.936H44.5718H44.5719Z" fill="white"/>
<path d="M38.8523 48.75L41.361 44.414C41.5465 44.0935 41.8787 43.902 42.2497 43.902C42.6207 43.902 42.9529 44.0935 43.1384 44.414L45.6471 48.75H38.8523Z" fill="white"/>
<path d="M43.6832 44.1002C43.4976 43.7796 43.4976 43.3967 43.6832 43.0761C43.8687 42.7555 44.2009 42.5641 44.5719 42.5641H49.5893L46.1919 48.436L43.6832 44.1002L43.6832 44.1002Z" fill="white"/>
<path d="M34.9102 41.936L38.3077 36.064L40.8163 40.3999C41.0018 40.7205 41.0018 41.1033 40.8163 41.424C40.6307 41.7446 40.2985 41.936 39.9275 41.936H34.9102Z" fill="white"/>
<path d="M34.9102 42.564H39.9275C40.2985 42.564 40.6308 42.7554 40.8163 43.076C41.0018 43.3967 41.0018 43.7795 40.8163 44.1001L38.3077 48.4359L34.9102 42.564Z" fill="white"/>
</g>
</g>
<defs>
<clipPath id="clip0_7370_8187">
<rect width="52" height="52" fill="white"/>
</clipPath>
<clipPath id="clip1_7370_8187">
<rect width="19.5" height="19.5" fill="white" transform="translate(32.5 32.5)"/>
</clipPath>
</defs>
</svg>
